<svg width="24" height="24" viewBox="0 0 24 24" fill="none" xmlns="http://www.w3.org/2000/svg">
<g clip-path="url(#clip0_3239_1915)">
<path d="M11.1124 14.0685C10.3007 12.4954 8.34156 11.8966 6.71326 12.7696C5.0919 13.6388 4.44043 15.6398 5.26112 17.2302C6.06999 18.7979 8.0266 19.405 9.66029 18.5291C11.2816 17.66 11.9331 15.6589 11.1124 14.0685Z" fill="black"/>
<path d="M23.9186 5.95108L21.0049 0.42977C20.8238 0.0864574 20.3987 -0.045027 20.0553 0.13591L12 4.38213C11.6566 4.56311 11.5249 4.98808 11.7056 5.33158L12.4477 6.74196L9.95677 8.05141L9.21587 6.64343C9.03507 6.29997 8.6093 6.1675 8.26562 6.349L4.38062 8.39866C0.246569 10.5778 -1.25315 15.7695 1.14966 19.8328L0.621663 20.3606C-0.199119 21.181 -0.199353 22.5092 0.621663 23.3298C1.44038 24.1481 2.77248 24.1482 3.59124 23.3298L4.13846 22.7828C6.57254 24.1712 9.65541 24.2672 12.2836 22.7639C15.6968 20.8113 17.1062 16.8324 16.0748 13.3325C15.7113 12.0992 16.2697 10.7408 17.4759 10.1182L23.6227 6.90227C23.9676 6.7218 24.1003 6.29524 23.9186 5.95108ZM2.59726 22.3352C2.32655 22.6056 1.8863 22.6056 1.61569 22.3352C1.3448 22.0643 1.34471 21.6261 1.61569 21.3552L1.97738 20.9937C2.28141 21.3501 2.61202 21.6753 2.96419 21.9684L2.59726 22.3352ZM10.3237 19.7682C8.0034 21.012 5.18284 20.1465 4.01054 17.8747C2.83988 15.6059 3.75385 12.7596 6.04796 11.5298C8.36912 10.2854 11.1889 11.1516 12.3611 13.4232C13.5316 15.692 12.6177 18.5383 10.3237 19.7682Z" fill="black"/>
<path d="M8.28839 3.36946C8.46933 3.71324 8.89453 3.84505 9.23799 3.66426C9.58163 3.48346 9.71358 3.05821 9.53278 2.71457L8.49338 0.739116C8.31253 0.395475 7.88742 0.263475 7.54378 0.444319C7.20014 0.625116 7.06819 1.05037 7.24899 1.39401L8.28839 3.36946Z" fill="black"/>
<path d="M5.19854 5.15992C7.50802 5.66148 7.365 5.63706 7.47099 5.63706C7.79461 5.63706 8.08585 5.4122 8.15738 5.08305C8.23979 4.70355 7.99899 4.32911 7.61954 4.2467L5.49699 3.78573C5.11744 3.70319 4.74315 3.94417 4.66069 4.32362C4.57829 4.70308 4.81913 5.07752 5.19854 5.15992Z" fill="black"/>
<path d="M11.0188 3.57781C11.3779 3.72495 11.7887 3.5532 11.9359 3.19362L12.7714 1.15339C12.9185 0.794042 12.7465 0.383417 12.3872 0.236277C12.0277 0.0889955 11.6172 0.26112 11.4701 0.620464L10.6346 2.6607C10.4875 3.02004 10.6595 3.43067 11.0188 3.57781Z" fill="black"/>
</g>
<defs>
<clipPath id="clip0_3239_1915">
<rect width="24" height="24" fill="white"/>
</clipPath>
</defs>
</svg>
