<svg width="24" height="24" viewBox="0 0 24 24" fill="none" xmlns="http://www.w3.org/2000/svg">
<g clip-path="url(#clip0_3250_2073)">
<path d="M14.8125 12.6562H12C11.6117 12.6562 11.2969 12.3414 11.2969 11.9531V8.4375H7.78125C7.39294 8.4375 7.07812 8.12269 7.07812 7.73438V4.92188C7.07812 4.53356 7.39294 4.21875 7.78125 4.21875H11.2969V0.703125C11.2969 0.314812 11.6117 0 12 0H14.8125C15.2008 0 15.5156 0.314812 15.5156 0.703125V4.21875H19.0312C19.4196 4.21875 19.7344 4.53356 19.7344 4.92188V7.73438C19.7344 8.12269 19.4196 8.4375 19.0312 8.4375H15.5156V11.9531C15.5156 12.3414 15.2008 12.6562 14.8125 12.6562Z" fill="black"/>
<path d="M23.9473 15.373C23.9017 14.7923 23.5952 14.2774 23.1064 13.9605C22.4096 13.5089 21.4887 13.5777 20.8669 14.1278L18.2751 16.4205C18.2341 18.1297 16.8319 19.5078 15.113 19.5078H10.8598C10.4715 19.5078 10.1567 19.193 10.1567 18.8047C10.1567 18.4164 10.4715 18.1016 10.8598 18.1016H15.113C16.0838 18.1016 16.8708 17.3145 16.8708 16.3438C16.8708 15.3729 16.0838 14.586 15.113 14.586H12.2302C11.5982 14.586 10.979 14.4083 10.443 14.0734C8.55103 12.891 6.09244 13.1765 4.52175 14.761L0.250641 19.0697C0.120094 19.2014 0.046875 19.3793 0.046875 19.5647V23.2968C0.046875 23.6851 0.361688 24 0.75 24H5.4375C5.6273 24 5.80908 23.9232 5.94145 23.7872L7.14066 22.5547H15.6019C16.5283 22.5547 17.418 22.2139 18.1073 21.595L23.3369 16.8993C23.7704 16.5101 23.9928 15.9538 23.9473 15.373Z" fill="black"/>
</g>
<defs>
<clipPath id="clip0_3250_2073">
<rect width="24" height="24" fill="white"/>
</clipPath>
</defs>
</svg>
