<svg width="24" height="24" viewBox="0 0 24 24" fill="none" xmlns="http://www.w3.org/2000/svg">
<g clip-path="url(#clip0_3235_1765)">
<path fill-rule="evenodd" clip-rule="evenodd" d="M5.75986 23.993C4.45564 23.993 3.22351 23.5244 2.25574 22.6666L4.1864 20.7362L6.02056 21.2277L6.73759 23.9034C6.41847 23.9627 6.09149 23.993 5.75986 23.993ZM18.8355 20.3413C18.8329 20.3413 18.8381 20.3413 18.8355 20.3413C18.6905 20.3393 18.545 20.2787 18.4454 20.1735C18.2214 19.9367 17.9419 19.6165 17.6181 19.2454C17.1443 18.7023 16.5028 17.967 15.8866 17.3485L20.673 12.5623L21.7352 13.6244L18.4939 16.9009C18.3943 17.0016 18.3923 17.1631 18.4929 17.2638C18.5412 17.3121 18.6053 17.3387 18.6737 17.3387C18.7415 17.3387 18.8057 17.3131 18.8535 17.2648L22.097 13.9861L23.3754 15.2645C23.4761 15.3652 23.5327 15.5017 23.5327 15.6442C23.5327 15.7866 23.4761 15.9231 23.3754 16.0239L19.2151 20.1844C19.1146 20.285 18.9781 20.3413 18.8355 20.3413ZM15.5196 16.9921C15.0994 16.5993 14.7108 16.2946 14.4211 16.1854C14.2918 16.1332 11.5183 15.0046 9.58272 13.7282C9.27113 13.5226 8.94459 13.3115 8.61113 13.0953C7.67669 12.4902 6.71052 11.8643 5.8376 11.2216C5.38688 10.8896 5.21475 10.3557 5.38799 9.8281C5.56571 9.28752 6.05297 8.9101 6.5735 8.9101C6.79413 8.9101 7.12067 8.97726 7.42368 9.29682C7.75205 9.64329 8.52465 10.0405 9.19977 10.3117C8.43867 9.75535 6.82165 8.52028 5.90104 7.43177C5.39418 6.83261 5.23457 6.08353 5.49428 5.52329C5.66785 5.14909 6.00745 4.92563 6.40286 4.92563C6.6865 4.92563 7.12609 5.04495 7.61053 5.61398C8.33386 6.46377 9.59224 7.52583 10.414 8.07465C9.97237 7.49542 9.06284 6.48132 7.19014 4.76469C6.52084 4.15114 6.26522 3.41568 6.50578 2.79676C6.70155 2.29322 7.19966 1.96784 7.77424 1.96784C8.38889 1.96784 8.99341 2.32926 9.43301 2.95958C10.1846 4.03725 11.9174 6.09925 12.7317 6.71202C12.6558 6.53209 12.4955 6.25471 12.16 5.85642L10.184 3.49706C10.1756 3.48699 10.1675 3.4768 10.1599 3.46617C9.51207 2.56749 9.34498 1.49575 9.73397 0.735657C9.97215 0.270541 10.3878 0.00390625 10.8749 0.00390625C11.3644 0.00390625 12.1208 0.280064 12.9447 1.59669L15.2301 5.2478C15.2041 4.00753 15.3358 2.66439 15.9419 2.10908C16.1802 1.83592 16.5012 1.6861 16.8508 1.6861C17.4988 1.6861 18.1496 2.20675 18.3015 2.84698L20.4886 12.0232L15.5196 16.9921ZM14.3913 13.4651C14.4597 13.4651 14.5237 13.4385 14.5722 13.3901L17.461 10.5012C17.561 10.4012 17.561 10.2394 17.461 10.1394L16.0165 8.69479C15.9165 8.59486 15.7547 8.59486 15.6547 8.69479L12.7658 11.5836C12.6658 11.6837 12.6658 11.8455 12.7658 11.9456L14.2104 13.3901C14.2588 13.4384 14.3229 13.4651 14.3913 13.4651ZM13.3086 11.7647L15.8356 9.23775L16.9182 10.3203L14.3913 12.8473L13.3086 11.7647ZM1.73289 22.1344C0.914821 21.1779 0.46875 19.9742 0.46875 18.7018C0.46875 18.338 0.505346 17.9798 0.576544 17.6314L3.20607 18.3361L3.69732 20.1701L1.73289 22.1344ZM0.777572 16.9125C1.03756 16.1868 1.45723 15.5217 2.01845 14.9604C2.61168 14.3672 3.3209 13.9321 4.095 13.6765L4.80837 16.339L3.50437 17.6432L0.777572 16.9125ZM6.74126 21.0345L8.04509 19.7305L10.7545 20.4563C10.4955 21.1955 10.0715 21.8729 9.50128 22.4431C8.91691 23.0275 8.22004 23.4583 7.45967 23.7153L6.74126 21.0345ZM8.34351 19.0377L7.85237 17.2043L9.78703 15.2694C10.605 16.2259 11.051 17.4296 11.051 18.7018C11.051 19.0531 11.017 19.3991 10.9506 19.7362L8.34351 19.0377ZM7.36389 16.6376L5.52912 16.1458L4.81846 13.4936C5.12607 13.4387 5.44081 13.4105 5.75988 13.4105C7.0641 13.4105 8.29629 13.8792 9.26411 14.7372L7.36389 16.6376ZM4.43245 20.0295L3.95549 18.2481L5.33644 16.8671L7.11768 17.3444L7.59464 19.1258L6.21363 20.5069L4.43245 20.0295Z" fill="black"/>
</g>
<defs>
<clipPath id="clip0_3235_1765">
<rect width="24" height="24" fill="white"/>
</clipPath>
</defs>
</svg>
