<svg width="24" height="24" viewBox="0 0 24 24" fill="none" xmlns="http://www.w3.org/2000/svg">
<g clip-path="url(#clip0_3248_2062)">
<path fill-rule="evenodd" clip-rule="evenodd" d="M0 12C0 18.6167 5.38331 24.0001 12 24.0001C18.6167 24.0001 24.0001 18.6167 24.0001 12C24.0001 5.38336 18.6167 0 12 0C5.38336 0 0 5.38336 0 12ZM15.2351 16.448L11.3935 12.6061C11.2343 12.4454 11.1433 12.2275 11.1433 12.0001V4.23717C11.1433 3.76378 11.5275 3.38011 12 3.38011C12.4727 3.38011 12.8568 3.76378 12.8568 4.23717V11.6452L16.4482 15.2359C16.7819 15.5708 16.7819 16.1134 16.4482 16.448C16.2814 16.6158 16.0616 16.6995 15.8417 16.6995C15.6218 16.6995 15.4044 16.6158 15.2351 16.448Z" fill="black"/>
</g>
<defs>
<clipPath id="clip0_3248_2062">
<rect width="24" height="24" fill="white"/>
</clipPath>
</defs>
</svg>
