<svg width="24" height="24" viewBox="0 0 24 24" fill="none" xmlns="http://www.w3.org/2000/svg">
<g clip-path="url(#clip0_3239_1954)">
<path d="M11.8012 0.0426217C11.6284 0.124232 11.5228 0.292241 11.5228 0.479446V1.59796C6.0023 1.85237 1.58594 6.42233 1.58594 12.0004C1.58594 12.7589 1.66758 13.5125 1.83077 14.2326C1.87877 14.4486 2.0756 14.607 2.29644 14.607H2.30123C2.52683 14.6022 2.71886 14.4486 2.76687 14.2278C3.66933 10.0754 7.30323 7.01759 11.5228 6.80157V7.89606C11.5228 8.08327 11.6284 8.2561 11.8012 8.33289C11.974 8.40971 12.1708 8.38089 12.3148 8.26089L16.616 4.54538C16.7216 4.45419 16.784 4.32457 16.784 4.18055C16.784 4.04135 16.7216 3.91174 16.616 3.82055L12.3148 0.114615C12.1708 -0.00538623 11.9692 -0.0341984 11.8012 0.0426217Z" fill="#007A18"/>
<path d="M12.1967 15.6678C12.0287 15.5909 11.8271 15.6197 11.6831 15.7445L7.38193 19.4553C7.27634 19.5465 7.21875 19.6809 7.21875 19.8201C7.21875 19.9593 7.27634 20.0937 7.38193 20.1849L11.6879 23.886C11.7743 23.9628 11.8847 24.0012 11.9999 24.0012C12.0671 24.0012 12.1343 23.9868 12.1967 23.958C12.3696 23.8812 12.4799 23.7084 12.4799 23.5212V22.4027C18.0004 22.1531 22.4119 17.5831 22.4119 12.0003C22.4119 11.2418 22.3303 10.4929 22.1719 9.77288C22.1191 9.55208 21.9271 9.39844 21.7015 9.39844C21.4759 9.39844 21.2791 9.55687 21.2311 9.77767C20.3334 13.93 16.6947 16.9831 12.4799 17.1991V16.1046C12.4799 15.9174 12.3696 15.7493 12.1967 15.6678Z" fill="#A80000"/>
</g>
<defs>
<clipPath id="clip0_3239_1954">
<rect width="24" height="24" fill="white"/>
</clipPath>
</defs>
</svg>
